<?xml version="1.0" encoding="UTF-8"?>
<svg version="1.1" xmlns="http://www.w3.org/2000/svg" width="382" height="120">
<path d="M0 0 C126.06 0 252.12 0 382 0 C382 39.6 382 79.2 382 120 C255.94 120 129.88 120 0 120 C0 80.4 0 40.8 0 0 Z " fill="#15171C" transform="translate(0,0)"/>
<path d="M0 0 C15.18 0 30.36 0 46 0 C46 15.18 46 30.36 46 46 C30.82 46 15.64 46 0 46 C0 30.82 0 15.64 0 0 Z " fill="#2C3643" transform="translate(34,35)"/>
<path d="M0 0 C4.93626692 3.22755914 7.47393781 6.27726677 9 12 C8.67581327 17.71747513 7.02561416 21.8401987 3 26 C3.33 26.33 3.66 26.66 4 27 C4.04063832 28.66617115 4.042721 30.33388095 4 32 C2.35 31.67 0.7 31.34 -1 31 C-1 30.01 -1 29.02 -1 28 C-1.99 28 -2.98 28 -4 28 C-4 29.98 -4 31.96 -4 34 C-2.68 34.33 -1.36 34.66 0 35 C0 35.66 0 36.32 0 37 C-3.63 36.67 -7.26 36.34 -11 36 C-11 35.34 -11 34.68 -11 34 C-10.01 34 -9.02 34 -8 34 C-8 32.02 -8 30.04 -8 28 C-8.556875 27.896875 -9.11375 27.79375 -9.6875 27.6875 C-13.65685746 26.50742075 -16.28702359 24.93424496 -18.8125 21.625 C-20.07805562 18.82745599 -20.2598401 17.0314678 -20 14 C-19.34 13.67 -18.68 13.34 -18 13 C-18.66 13 -19.32 13 -20 13 C-19.54661888 8.12615301 -18.57942756 5.39586718 -15 2 C-9.96721342 -0.83367766 -5.6431092 -1.67203236 0 0 Z " fill="#5A7581" transform="translate(63,39)"/>
<path d="M0 0 C2.64 0 5.28 0 8 0 C8 11.55 8 23.1 8 35 C-9 36 -9 36 -15 32 C-18.09818479 27.45599564 -18.7810678 23.34977943 -18 18 C-16.30531179 13.36190596 -14.35358836 10.40836803 -10 8 C-6.63835321 7.6803342 -3.36511278 7.76476882 0 8 C0 5.36 0 2.72 0 0 Z " fill="#F6F6F6" transform="translate(168,41)"/>
<path d="M0 0 C3.196875 -0.061875 6.39375 -0.12375 9.6875 -0.1875 C11.18543091 -0.22846802 11.18543091 -0.22846802 12.71362305 -0.27026367 C21.18367947 -0.34963045 21.18367947 -0.34963045 25 3 C27.72516541 7.02599965 27.55307376 11.30725296 27 16 C25.37599816 19.63467079 24.33886956 20.77408696 21 23 C17.64453125 23.1953125 17.64453125 23.1953125 13.8125 23.125 C12.54019531 23.10695313 11.26789063 23.08890625 9.95703125 23.0703125 C8.98121094 23.04710938 8.00539063 23.02390625 7 23 C7 26.96 7 30.92 7 35 C4.69 35 2.38 35 0 35 C0 23.45 0 11.9 0 0 Z " fill="#FAFAFA" transform="translate(91,41)"/>
<path d="M0 0 C2.94183631 1.98402914 4.75605993 3.84105375 6.6875 6.8125 C6.6875 7.8025 6.6875 8.7925 6.6875 9.8125 C3.89886993 11.20681504 1.76671132 11.06910094 -1.3125 10.8125 C-1.9725 9.8225 -2.6325 8.8325 -3.3125 7.8125 C-6.88019552 7.07643501 -6.88019552 7.07643501 -10.3125 6.8125 C-10.6425 8.1325 -10.9725 9.4525 -11.3125 10.8125 C-10.34828125 11.12703125 -9.3840625 11.4415625 -8.390625 11.765625 C-7.11437396 12.19729815 -5.83834371 12.62962445 -4.5625 13.0625 C-3.92828125 13.26746094 -3.2940625 13.47242188 -2.640625 13.68359375 C1.35669866 15.05767376 4.12731879 16.40524649 6.6875 19.8125 C7.48688838 22.89428004 7.33698264 25.70386514 6.6875 28.8125 C3.73039837 32.67316046 0.44095569 35.4270162 -4.4609375 36.11328125 C-9.49762597 36.13979014 -13.01026916 35.71400452 -17.3125 32.8125 C-19.95267507 30.02961276 -21.89560497 27.70352024 -22.3125 23.8125 C-21.3125 22.8125 -21.3125 22.8125 -18.0625 22.4375 C-14.3125 22.8125 -14.3125 22.8125 -11.8125 25.375 C-10.9875 26.179375 -10.1625 26.98375 -9.3125 27.8125 C-5.56889659 27.75521002 -5.56889659 27.75521002 -2.3125 26.8125 C-2.3125 25.4925 -2.3125 24.1725 -2.3125 22.8125 C-3.19292969 22.58175781 -4.07335937 22.35101563 -4.98046875 22.11328125 C-17.42942472 18.61762547 -17.42942472 18.61762547 -20.3125 13.8125 C-20.98578199 10.65325374 -21.03787693 7.96531942 -20.3125 4.8125 C-15.06695309 -1.99253382 -7.81912163 -2.80308134 0 0 Z " fill="#F7F7F7" transform="translate(202.3125,41.1875)"/>
<path d="M0 0 C3.13594153 1.26772104 4.56546548 2.52051364 6.8125 5 C8.65270883 9.64894862 8.65144214 14.07075446 8 19 C5.86260117 23.4331235 3.5825842 26.12530646 -1 28 C-4.96851185 28.58075783 -8.05252975 28.40913488 -11.75 26.8125 C-14.85485394 24.31136766 -17.21336676 21.57326648 -19 18 C-19.37155705 12.42664432 -19.24782829 8.76348149 -16 4 C-11.09746912 -0.54380911 -6.37918006 -0.87473707 0 0 Z " fill="#F6F6F6" transform="translate(139,49)"/>
<path d="M0 0 C1.98 0 3.96 0 6 0 C6.33 2.97 6.66 5.94 7 9 C7.66 8.67 8.32 8.34 9 8 C14.20671061 7.35492081 17.81709835 7.0826477 22.0625 10.375 C24.59931234 13.81197156 25.12418872 15.37818212 25.09765625 19.5703125 C25.09443359 20.46621094 25.09121094 21.36210938 25.08789062 22.28515625 C25.07951172 23.22230469 25.07113281 24.15945312 25.0625 25.125 C25.05798828 26.06988281 25.05347656 27.01476562 25.04882812 27.98828125 C25.03702357 30.32558387 25.02055759 32.66276061 25 35 C22.36 35 19.72 35 17 35 C16.93941406 33.79601562 16.87882812 32.59203125 16.81640625 31.3515625 C16.73200268 29.77602923 16.64735459 28.20050904 16.5625 26.625 C16.52318359 25.8309375 16.48386719 25.036875 16.44335938 24.21875 C16.31106596 19.97398779 16.31106596 19.97398779 15 16 C12.58354218 15.83312552 12.58354218 15.83312552 10 16 C6.97906785 19.02093215 7.53323166 22.56372072 7.375 26.625 C7.33632813 27.42679688 7.29765625 28.22859375 7.2578125 29.0546875 C7.16346069 31.03607556 7.08063785 33.01800645 7 35 C4.69 35 2.38 35 0 35 C0 23.45 0 11.9 0 0 Z " fill="#F9F9F9" transform="translate(293,41)"/>
<path d="M0 0 C2.31 0 4.62 0 7 0 C7.33773437 0.84304687 7.67546875 1.68609375 8.0234375 2.5546875 C8.46945313 3.65039062 8.91546875 4.74609375 9.375 5.875 C9.81585938 6.96554688 10.25671875 8.05609375 10.7109375 9.1796875 C11.83051338 12.06329362 11.83051338 12.06329362 14 14 C14.34933594 13.07316406 14.69867188 12.14632812 15.05859375 11.19140625 C15.51363281 9.99386719 15.96867188 8.79632813 16.4375 7.5625 C16.88996094 6.36753906 17.34242188 5.17257813 17.80859375 3.94140625 C19 1 19 1 20 0 C22.33297433 -0.04092937 24.66705225 -0.04241723 27 0 C26.38173084 4.91273329 24.90248694 9.24202706 23.05859375 13.8046875 C22.77146011 14.5286673 22.48432648 15.25264709 22.18849182 15.99856567 C21.27704996 18.29296874 20.35742093 20.58398521 19.4375 22.875 C18.81521005 24.43728296 18.19345955 25.99978091 17.57226562 27.5625 C16.05440774 31.37751595 14.52920242 35.18951799 13 39 C10.69 39 8.38 39 6 39 C6.31182069 37.58318366 6.62448737 36.16655349 6.9375 34.75 C7.11152344 33.96109375 7.28554687 33.1721875 7.46484375 32.359375 C8 30 8 30 8.65039062 28.18481445 C9.12887374 25.1946291 8.28178998 23.46873731 7.12890625 20.68359375 C6.71962891 19.67232422 6.31035156 18.66105469 5.88867188 17.61914062 C5.45103516 16.56919922 5.01339844 15.51925781 4.5625 14.4375 C3.70517427 12.3546953 2.85210357 10.27013254 2.00390625 8.18359375 C1.62049072 7.26118896 1.2370752 6.33878418 0.84204102 5.38842773 C0 3 0 3 0 0 Z " fill="#F5F5F5" transform="translate(211,49)"/>
<path d="M0 0 C1.98 0 3.96 0 6 0 C6 0.66 6 1.32 6 2 C6.56847656 1.67902344 7.13695312 1.35804687 7.72265625 1.02734375 C11.43533658 -0.64750175 15.01318293 -0.71776921 19 0 C21.75569447 2.18159145 23.43588747 3.87177494 25 7 C25.08372659 8.52148326 25.10730027 10.04655778 25.09765625 11.5703125 C25.09443359 12.46621094 25.09121094 13.36210938 25.08789062 14.28515625 C25.07951172 15.22230469 25.07113281 16.15945312 25.0625 17.125 C25.05798828 18.06988281 25.05347656 19.01476562 25.04882812 19.98828125 C25.03702357 22.32558387 25.02055759 24.66276061 25 27 C22.69 27 20.38 27 18 27 C17.95101563 25.96359375 17.90203125 24.9271875 17.8515625 23.859375 C17.77650403 22.48955792 17.70095753 21.11976752 17.625 19.75 C17.5940625 19.06808594 17.563125 18.38617188 17.53125 17.68359375 C17.31740626 14.01260962 16.98922945 11.13748384 15 8 C13.35 8 11.7 8 10 8 C8.37150031 12.35590568 7.65881554 16.23934612 7.375 20.875 C7.26285156 22.60363281 7.26285156 22.60363281 7.1484375 24.3671875 C7.09945312 25.23601562 7.05046875 26.10484375 7 27 C4.69 27 2.38 27 0 27 C0 18.09 0 9.18 0 0 Z " fill="#FCFCFC" transform="translate(241,49)"/>
<path d="M0 0 C2.31 0 4.62 0 7 0 C7 2.31 7 4.62 7 7 C9.64 7 12.28 7 15 7 C15 8.98 15 10.96 15 13 C12.36 13 9.72 13 7 13 C7.33 17.29 7.66 21.58 8 26 C10.31 26.66 12.62 27.32 15 28 C15 29.98 15 31.96 15 34 C12.5773097 35.21134515 11.30449901 35.04840274 8.625 34.8125 C7.46871094 34.72935547 7.46871094 34.72935547 6.2890625 34.64453125 C3.0670714 33.73731533 1.9137054 32.7666465 0 30 C-0.47678965 27.0650202 -0.37777043 24.21329107 -0.25 21.25 C-0.23195313 20.45722656 -0.21390625 19.66445313 -0.1953125 18.84765625 C-0.14833082 16.89791652 -0.07659044 14.94880122 0 13 C-1.65 13 -3.3 13 -5 13 C-5 11.02 -5 9.04 -5 7 C-3.35 7 -1.7 7 0 7 C0 4.69 0 2.38 0 0 Z " fill="#F5F5F5" transform="translate(273,42)"/>
<path d="M0 0 C2.67507786 1.97968291 4.10403634 3.38030905 4.79296875 6.671875 C4.23046875 8.984375 4.23046875 8.984375 1.23046875 10.984375 C-2.168681 9.85132508 -2.82207576 8.85919025 -4.76953125 5.984375 C-5.94515625 6.5103125 -5.94515625 6.5103125 -7.14453125 7.046875 C-8.01078125 7.35625 -8.87703125 7.665625 -9.76953125 7.984375 C-10.42953125 7.654375 -11.08953125 7.324375 -11.76953125 6.984375 C-12.09953125 7.974375 -12.42953125 8.964375 -12.76953125 9.984375 C-11.77953125 10.314375 -10.78953125 10.644375 -9.76953125 10.984375 C-10.75953125 10.984375 -11.74953125 10.984375 -12.76953125 10.984375 C-11.44953125 11.314375 -10.12953125 11.644375 -8.76953125 11.984375 C-8.76953125 12.644375 -8.76953125 13.304375 -8.76953125 13.984375 C-10.08953125 13.984375 -11.40953125 13.984375 -12.76953125 13.984375 C-12.76953125 14.644375 -12.76953125 15.304375 -12.76953125 15.984375 C-11.77953125 16.314375 -10.78953125 16.644375 -9.76953125 16.984375 C-9.08203125 19.046875 -9.08203125 19.046875 -8.76953125 20.984375 C-7.44953125 21.314375 -6.12953125 21.644375 -4.76953125 21.984375 C-10.1379523 22.34226974 -10.1379523 22.34226974 -12.64453125 20.921875 C-14.3514952 17.98210376 -13.95752891 15.30566697 -13.76953125 11.984375 C-17.8717671 10.96897388 -17.8717671 10.96897388 -21.76953125 11.984375 C-21.31615013 7.11052801 -20.34895881 4.38024218 -16.76953125 0.984375 C-11.30566491 -2.09201931 -5.73820406 -3.29345045 0 0 Z " fill="#78858E" transform="translate(64.76953125,40.015625)"/>
<path d="M0 0 C5.94 0 11.88 0 18 0 C18 1.65 18 3.3 18 5 C15.1875 7.0625 15.1875 7.0625 12 9 C10.98758315 10.32392972 9.98560611 11.65599167 9 13 C6.8125 14.25 6.8125 14.25 5 15 C4.34 14.01 3.68 13.02 3 12 C2.34 12 1.68 12 1 12 C-0.03405665 7.7345163 0 4.62683027 0 0 Z " fill="#394955" transform="translate(34,35)"/>
<path d="M0 0 C0.99 0.103125 1.98 0.20625 3 0.3125 C5.53637054 4.11705581 5.59473663 6.85197531 5 11.3125 C3.8125 13.3125 3.8125 13.3125 2 14.3125 C-0.5 14.75 -0.5 14.75 -3 14.3125 C-4.875 12.8125 -4.875 12.8125 -6 10.3125 C-6.03955941 7.4529196 -5.59675735 5.15857354 -5 2.3125 C-3 0.3125 -3 0.3125 0 0 Z " fill="#1A1C21" transform="translate(164,55.6875)"/>
<path d="M0 0 C0.969375 0.165 1.93875 0.33 2.9375 0.5 C5.45627615 4.27816423 5.67404227 7.06233281 4.9375 11.5 C3.3125 13.625 3.3125 13.625 0.9375 14.5 C-2.3125 13.6875 -2.3125 13.6875 -5.0625 12.5 C-5.87902673 8.71428516 -6.33272644 6.24709664 -5 2.5625 C-3.0625 0.5 -3.0625 0.5 0 0 Z " fill="#191B20" transform="translate(134.0625,55.5)"/>
<path d="M0 0 C0.99 0.66 1.98 1.32 3 2 C3.1875 5.125 3.1875 5.125 3 8 C1.68 8 0.36 8 -1 8 C-1.33 9.65 -1.66 11.3 -2 13 C-0.02 12.34 1.96 11.68 4 11 C2.35 11 0.7 11 -1 11 C-1 10.34 -1 9.68 -1 9 C0.65 9 2.3 9 4 9 C4.33 8.34 4.66 7.68 5 7 C6.32168051 9.17688554 7.0131712 10.55217933 6.9375 13.125 C6 15 6 15 3.6875 16.3125 C0.90594965 17.02405939 -0.3848428 17.12078166 -3 16 C-3.33 15.34 -3.66 14.68 -4 14 C-4.99 13.34 -5.98 12.68 -7 12 C-7 11.01 -7 10.02 -7 9 C-5.68 9 -4.36 9 -3 9 C-3 8.34 -3 7.68 -3 7 C-4.32 7.33 -5.64 7.66 -7 8 C-7 6.02 -7 4.04 -7 2 C-4.66666667 2 -2.33333333 2 0 2 C0 1.34 0 0.68 0 0 Z " fill="#ADB7BB" transform="translate(59,45)"/>
<path d="M0 0 C2.6934876 2.6934876 2.78924892 4.20648064 3 8 C1.90201012 12.50260968 0.46255355 15.85841349 -3 19 C-2.67 19.33 -2.34 19.66 -2 20 C-1.95936168 21.66617115 -1.957279 23.33388095 -2 25 C-3.65 24.67 -5.3 24.34 -7 24 C-7 23.01 -7 22.02 -7 21 C-7.99 20.67 -8.98 20.34 -10 20 C-7.36 18.35 -4.72 16.7 -2 15 C-2.33 12.36 -2.66 9.72 -3 7 C-5.64 7.33 -8.28 7.66 -11 8 C-11 8.66 -11 9.32 -11 10 C-9.35 10 -7.7 10 -6 10 C-6.33 10.99 -6.66 11.98 -7 13 C-7 12.34 -7 11.68 -7 11 C-8.65 11.33 -10.3 11.66 -12 12 C-12 10.02 -12 8.04 -12 6 C-9.525 6.495 -9.525 6.495 -7 7 C-7 5.35 -7 3.7 -7 2 C-5.68 2.66 -4.36 3.32 -3 4 C-2.01 2.68 -1.02 1.36 0 0 Z " fill="#828E96" transform="translate(69,46)"/>
<path d="M0 0 C0.99 0 1.98 0 3 0 C3 0.66 3 1.32 3 2 C4.32 1.67 5.64 1.34 7 1 C7.33 1.99 7.66 2.98 8 4 C7.01 4.66 6.02 5.32 5 6 C4.67 6.99 4.34 7.98 4 9 C4.99 9.33 5.98 9.66 7 10 C6.01 10 5.02 10 4 10 C5.32 10.33 6.64 10.66 8 11 C8 11.66 8 12.32 8 13 C6.68 13 5.36 13 4 13 C4 13.66 4 14.32 4 15 C4.99 15.33 5.98 15.66 7 16 C7.6875 18.0625 7.6875 18.0625 8 20 C9.32 20.33 10.64 20.66 12 21 C6.63157895 21.35789474 6.63157895 21.35789474 4.125 19.9375 C2.41803605 16.99772876 2.81200234 14.32129197 3 11 C-1.10223585 9.98459888 -1.10223585 9.98459888 -5 11 C-4.55074862 6.17054764 -3.45263456 3.45263456 0 0 Z " fill="#5B6E78" transform="translate(48,41)"/>
<path d="M0 0 C1.79093191 -0.08086147 3.58289628 -0.13912702 5.375 -0.1875 C6.87160156 -0.23970703 6.87160156 -0.23970703 8.3984375 -0.29296875 C9.25695312 -0.19628906 10.11546875 -0.09960938 11 0 C13 3 13 3 12.6875 5.625 C12 8 12 8 11 9 C9.14712498 9.07226502 7.29166122 9.0838122 5.4375 9.0625 C4.42558594 9.05347656 3.41367188 9.04445313 2.37109375 9.03515625 C1.58863281 9.02355469 0.80617188 9.01195312 0 9 C0 6.03 0 3.06 0 0 Z " fill="#1E2025" transform="translate(98,48)"/>
<path d="M0 0 C-0.99 0.66 -1.98 1.32 -3 2 C-3.33 2.99 -3.66 3.98 -4 5 C-3.01 5.33 -2.02 5.66 -1 6 C-1.99 6 -2.98 6 -4 6 C-2.68 6.33 -1.36 6.66 0 7 C0 7.66 0 8.32 0 9 C-1.32 9 -2.64 9 -4 9 C-4 9.66 -4 10.32 -4 11 C-3.01 11.33 -2.02 11.66 -1 12 C-0.3125 14.0625 -0.3125 14.0625 0 16 C1.32 16.33 2.64 16.66 4 17 C-1.36842105 17.35789474 -1.36842105 17.35789474 -3.875 15.9375 C-5.58196395 12.99772876 -5.18799766 10.32129197 -5 7 C-6.32 6.67 -7.64 6.34 -9 6 C-8.01 5.34 -7.02 4.68 -6 4 C-6 2.68 -6 1.36 -6 0 C-3 -1 -3 -1 0 0 Z " fill="#6A747D" transform="translate(56,45)"/>
<path d="M0 0 C6.875 0.875 6.875 0.875 8 2 C8.04080783 3.99958364 8.04254356 6.00045254 8 8 C9.32 8.33 10.64 8.66 12 9 C12 9.66 12 10.32 12 11 C8.37 10.67 4.74 10.34 1 10 C1 9.34 1 8.68 1 8 C1.99 8 2.98 8 4 8 C4 6.02 4 4.04 4 2 C2.68 1.67 1.36 1.34 0 1 C0 0.67 0 0.34 0 0 Z " fill="#B2BEC1" transform="translate(51,65)"/>
<path d="M0 0 C0.99 0.66 1.98 1.32 3 2 C3.1875 5.125 3.1875 5.125 3 8 C-0.3 8 -3.6 8 -7 8 C-7 6.02 -7 4.04 -7 2 C-4.66666667 2 -2.33333333 2 0 2 C0 1.34 0 0.68 0 0 Z " fill="#9FACB1" transform="translate(59,45)"/>
<path d="M0 0 C0.66 0 1.32 0 2 0 C2.66 2.64 3.32 5.28 4 8 C0.82469891 10.72168665 -1.94254825 12.85559053 -6 14 C-8.3125 13.625 -8.3125 13.625 -10 13 C-10 12.34 -10 11.68 -10 11 C-8.741875 10.608125 -7.48375 10.21625 -6.1875 9.8125 C-3.11696736 8.66377236 -2.09060148 8.10981998 0.0625 5.5 C1.32577972 2.92867545 1.32577972 2.92867545 0 0 Z " fill="#627986" transform="translate(64,53)"/>
<path d="M0 0 C0.33 0.66 0.66 1.32 1 2 C-0.32 3.65 -1.64 5.3 -3 7 C-2.67 7.33 -2.34 7.66 -2 8 C-1.95936168 9.66617115 -1.957279 11.33388095 -2 13 C-3.65 12.67 -5.3 12.34 -7 12 C-7 11.01 -7 10.02 -7 9 C-7.99 8.67 -8.98 8.34 -10 8 C-9.16855469 7.51080078 -9.16855469 7.51080078 -8.3203125 7.01171875 C-7.23363281 6.35623047 -7.23363281 6.35623047 -6.125 5.6875 C-5.40570313 5.25824219 -4.68640625 4.82898437 -3.9453125 4.38671875 C-1.73153667 2.98247625 -1.73153667 2.98247625 0 0 Z " fill="#98BCC8" transform="translate(69,58)"/>
<path d="M0 0 C3.71599191 -0.20086443 4.77208445 -0.1519437 8 2 C7 5 7 5 5 7 C2 6 2 6 0 3 C0 2.01 0 1.02 0 0 Z " fill="#455765" transform="translate(61,44)"/>
<path d="M0 0 C-0.99 0.495 -0.99 0.495 -2 1 C-2.33 1.66 -2.66 2.32 -3 3 C-3.66 2.67 -4.32 2.34 -5 2 C-5.33 2.99 -5.66 3.98 -6 5 C-7.9375 4.6875 -7.9375 4.6875 -10 4 C-10.33 3.01 -10.66 2.02 -11 1 C-6.87831311 -0.62950412 -4.29299643 -1.26264601 0 0 Z " fill="#7D96A0" transform="translate(61,39)"/>
<path d="M0 0 C0.12375 1.11375 0.2475 2.2275 0.375 3.375 C0.6465813 7.03103677 0.6465813 7.03103677 3 9 C4.98821313 9.39764263 6.98944339 9.73775349 9 10 C7.3125 11.1875 7.3125 11.1875 5 12 C2.375 11.0625 2.375 11.0625 0 9 C-0.69356423 6.67451993 -1.36149212 4.34119555 -2 2 C-3.98567734 0.50256112 -3.98567734 0.50256112 -6 0 C-3.50907189 -1.24546405 -2.58919267 -0.7767578 0 0 Z " fill="#B5BEC1" transform="translate(51,52)"/>
<path d="M0 0 C1.28132813 0.10183594 2.56265625 0.20367187 3.8828125 0.30859375 C4.87023438 0.39238281 5.85765625 0.47617188 6.875 0.5625 C6.875 1.2225 6.875 1.8825 6.875 2.5625 C1.595 2.5625 -3.685 2.5625 -9.125 2.5625 C-9.125 1.9025 -9.125 1.2425 -9.125 0.5625 C-6.07230154 -0.96384923 -3.36654311 -0.27544444 0 0 Z " fill="#456575" transform="translate(58.125,74.4375)"/>
<path d="M0 0 C1.32 0.33 2.64 0.66 4 1 C4 1.66 4 2.32 4 3 C4.66 3 5.32 3 6 3 C5.67 4.32 5.34 5.64 5 7 C4.34 6.34 3.68 5.68 3 5 C2.67 5.99 2.34 6.98 2 8 C-0.1519437 4.77208445 -0.20086443 3.71599191 0 0 Z " fill="#81A0AA" transform="translate(43,53)"/>
<path d="M0 0 C2.31 0.33 4.62 0.66 7 1 C7 2.32 7 3.64 7 5 C6.34 5 5.68 5 5 5 C5 6.32 5 7.64 5 9 C3.68 8.67 2.36 8.34 1 8 C1.99 8 2.98 8 4 8 C4 6.02 4 4.04 4 2 C2.68 1.67 1.36 1.34 0 1 C0 0.67 0 0.34 0 0 Z " fill="#8E979D" transform="translate(51,65)"/>
<path d="M0 0 C-0.99 0.66 -1.98 1.32 -3 2 C-3.33 2.99 -3.66 3.98 -4 5 C-3.01 5.33 -2.02 5.66 -1 6 C-3.31 6.33 -5.62 6.66 -8 7 C-8.33 6.34 -8.66 5.68 -9 5 C-8.01 4.67 -7.02 4.34 -6 4 C-6 2.68 -6 1.36 -6 0 C-3 -1 -3 -1 0 0 Z " fill="#59636D" transform="translate(56,45)"/>
<path d="M0 0 C0.66 0.66 1.32 1.32 2 2 C2.99 1.34 3.98 0.68 5 0 C5 0.66 5 1.32 5 2 C5.66 2.33 6.32 2.66 7 3 C4.36 3.99 1.72 4.98 -1 6 C-0.67 4.02 -0.34 2.04 0 0 Z " fill="#8198A0" transform="translate(44,46)"/>
<path d="M0 0 C0.66 0 1.32 0 2 0 C2.66 2.64 3.32 5.28 4 8 C1 9 1 9 -2 8 C-1.484375 7.236875 -0.96875 6.47375 -0.4375 5.6875 C0.2740625 4.3571875 0.2740625 4.3571875 1 3 C0.67 2.01 0.34 1.02 0 0 Z " fill="#415462" transform="translate(64,53)"/>
<path d="M0 0 C0.33 0 0.66 0 1 0 C1.33 2.31 1.66 4.62 2 7 C0.02 7.99 0.02 7.99 -2 9 C-2.33 6.69 -2.66 4.38 -3 2 C-2.34 2 -1.68 2 -1 2 C-0.67 1.34 -0.34 0.68 0 0 Z " fill="#7E8F98" transform="translate(69,51)"/>
</svg>
