<?xml version="1.0" encoding="UTF-8"?>
<svg version="1.1" viewBox="0 0 1024 1024" width="1280" height="1280" xmlns="http://www.w3.org/2000/svg">
<path transform="translate(0)" d="m0 0h1024v1024h-1024z" fill="#2A3543"/>
<path transform="translate(3)" d="m0 0h486v1l-47 1h-53l-1 2-1-1-15-1h-21l-1 4 9 2v2l-3 1 22 1 5-2 2-4 7 1 6 2v3l2 4v14l-2 2 2 10-2 5v10l-2 5-4 2v6l-3 6 6 3 4 1-1 1-14 1-2-1-12-1-5-4-4 1-4 5 1 5 12 8 6 2 5-1 5-2h15l2 1h6l3 2v2l11-2 25-6 31-5 10-1h49l36 5 25 6 36 12 32 15 19 11 17 12 13 11 14 12 13 13 9 11 10 12 13 18 17 28 11 23 10 26 7 24 5 24 2 14 1 24v20l-1 20-4 28-5 21-12 36-17 35-14 24-21 28-10 11-7 8-5 6-8 7-11 10-18 13-18 12-16 9-16 8-28 12-25 8-22 5-14 1v-15l36-8 27-9 20-8 25-13 15-10 14-10 10-8 15-13 18-18 9-11 13-18 10-15 13-24 11-25 8-21 6-26 4-22 3-25 2-3h3l-3-6-1-12-2-11-2-21-5-28-6-21-11-27-16-32-10-16-12-17-11-14-10-11-7-8-11-11-17-13-15-10-21-12-28-13-36-12-26-6-38-4-13-5h-9l-9 4-40 5-27 6-20 6-22 8-24 11-19 11-18 13-9 7-10 9-8 7-10 10-7 8-10 12-12 17-9 14-13 24-10 22-10 30-5 22-5 39-9 5-3 6v9l3 5 9 4 3 27 5 28 7 24 8 20 14 29 8 14 10 15 10 14 11 14 14 15 8 8 30 23 21 13 22 12 24 10 24 8 21 5 18 3v15l-13-1-27-6-33-11-24-11-19-10-18-11-18-13-11-9-10-9-8-7-7-7-7-8-13-16-9-13-7-10-12-21-12-23-10-26-7-23-5-26-2-16-1-15v-40l3-28 4-22-1-4h-2v-6l-5-4 4-2v-9l-1-5 2-4v-3l-2-1v-23l2-8v-6l-6-1-4 3-11 1-2 2-1 7-2 3-2 6-3 1-1 22-2 2-20 1-5 12-3-2-6 1-4-2 6 14 4 7 5 2 1 5-2 2-5 2-4 4h-12l-9 1-2-1 1-7v-12h2l2-4v-13l-3-13-7-2 1-9h3l-2-1-9-1-2-2-1-25-12-1-2-4-1-5h-5l-3 2-3-3v-2h-4l-2 7-6 3-1 4 5 1 3 3-1 4-3 4-1 3-7 3-3 3-7-2-4-8v-13l2-6h4l2 5 5-1 2-5 7-2 1-5v-3l-2-8-10-4-4-3 1 3 4 2 8 2-1 4-5-1-4 2-1 2v9l1 4 2 1v2h-4l-3-6h-3l-2 7-2 4 1 5 1 10-7 3h-3v-7l1-1v-6l-1-5 3-4 3-7 4-4-4-10-5-3v-2h-11l-6-10-2-11 4-2 1 1v-14l1-18v-11l-5-9-3-4-1-3v5l-4-1v-10l3-5 3-7 3-10h3l-1 11 2-9-2-11-3-11-2-9h-2v-22h-1l-2-15-1-7 1-5v-10l-1-3 2-12v-3l4-4 3-2-9-2z" fill="#364B57"/>
<path transform="translate(354,365)" d="m0 0h13l2 3v84l1 39 2 15 4 14 8 18 10 16 12 13 10 10 14 10 14 8 17 8 16 5 19 3 12 1h11l20-2 19-5 19-8 16-9 13-9 12-11 9-10 10-14 8-16 5-16 3-12 1-8v-46l-1-56v-23l3-2h9l5 3 2 5 1 30 1 19-2 2-1 64-2 18-4 17-5 13-9 17-12 16-9 11-12 11-16 11-22 12-21 8-17 5-23 3v53l1 1h16l5 2 1 1 1 36 9 14 4 12h81l1-10 5-13 4-6 6-8 12-9 10-5 13-3h16l14 3 12 6 10 8 4 5v3l-4 3-9-2-5-3-7-1 9 13 4 8 3 10v15l-4 13-7 12-6 7-4-2-1-6 8-10 4-9 1-5v-14l-3-10-6-10-5-4-4 6 7 10 2 5 1 6v11l-3 9-7 10-2 2-5-1v-7l4-2 3-9 1-4v-8l-3-10-6-8h-4l-1 6 5 9v13l-5 10-5 1-3-2 1-4 3-6v-10l-4-7-3 3h-2l1 4v9l-3 7-8 5-6-2-3-5-1 1 1 7 2 4 4 2 6 12 1 8-2 4v6l2 1-5-1-9-4-12-11-7-11-4-9-3-13h-59l-22 1-4 10-7 10-1 7v64l-1 1h-61l-1-74-7-12-2-7v-16l4-12 5-8 1-39 3-2 21-3 1-50 1-3-16-1-15-3-20-6-20-9-14-8-17-12-12-11-9-11-10-13-9-16-6-14-5-19-2-16v-67l-5-2-11-7-4-6-1-13v-10l4-6 6-3 3 1 1 27h3l1-4 1-28 2-6z" fill="#E7EFEE"/>
<path transform="translate(471,210)" d="m0 0h2l1 3v31l-2 4-9 2-5 6-1 9 3 7 13 7 8 8 8 7 3 2v13l3 8 4 5 9 5v14l-9 4-4 5-2 7v8l3 7 6 7 10 4 1 3 2 22 2 19 1 73v82l-1 1h-10l-1-27v-152l-5-2-7-7-9-11-4-5-4-6-5-3-60 1-4 4v7l4 4 2 1h29l28-1 3-1 5 4 9 11 10 11 1 85v86l-9-1-7-2-1-68-2-16-1-5h-2l1-8 1-2v-6l-4-4-2-1h-61l-5 5 1 6 1 3 6 2 59 1 2 1v61l-1 29-8-2-7-3-2-6-3-33 8-6 2-5v-7l-6-9-5-2-8 1-6 5-2 5 1 10 4 6 3 2 6 1v33l-5-1-11-7-10-9-11-11-9-14-9-19-5-17-1-7-1-22v-128l1-31 3-15 6-18 7-11 9-11 15-15 14-9 15-8z" fill="#E7EFEE"/>
<path transform="translate(550,211)" d="m0 0 9 1 17 8 17 12 13 12 9 12 7 12 7 21 3 16v177l-4 19-6 15-10 18-9 11-9 9-14 10-6 3v-34l10-5 3-5v-10l-3-6-5-3h-7l-6 3h-2l-2 5-1 2v9l6 9-2 38-6 4-5 2h-5l-1-30v-46l1-15h63l4-5 1-7-4-4-61-1-5 2-4 6-2 28v74l-7 3-7 1-1-3-1-134-1-30-2-15v-18l8-7 3-5 1-10-3-10-5-5-5-4-3-1-1-12 10-7 5-9v-12l-1-4 13-13 4-5h10l8-5 3-6v-8l-3-6-6-5-8-1h-3v-32z" fill="#E7EFEE"/>
<path transform="translate(489,85)" d="m0 0h49l36 5 25 6 36 12 32 15 19 11 17 12 13 11 14 12 13 13 9 11 10 12 13 18 17 28 11 23 10 26 7 24 5 24 2 14 1 24v20l-1 20-4 28-5 21-12 36-17 35-14 24-21 28-10 11-7 8-5 6-8 7-11 10-18 13-18 12-16 9-16 8-28 12-25 8-22 5-14 1v-15l36-8 27-9 20-8 25-13 15-10 14-10 10-8 15-13 18-18 9-11 13-18 10-15 13-24 11-25 8-21 6-26 4-22 3-25 2-3h3l-3-6-1-12-2-11-2-21-5-28-6-21-11-27-16-32-10-16-12-17-11-14-10-11-7-8-11-11-17-13-15-10-21-12-28-13-36-12-26-6-38-4-13-5h-9l-9 4-40 5-27 6-20 6-22 8-24 11-19 11-18 13-9 7-10 9-8 7-10 10-7 8-10 12-12 17-9 14-13 24-10 22-10 30-5 22-5 39-9 5-3 6v9l3 5 9 4 3 27 5 28 7 24 8 20 14 29 8 14 10 15 10 14 11 14 14 15 8 8 30 23 21 13 22 12 24 10 24 8 21 5 18 3v15l-13-1-27-6-33-11-24-11-19-10-18-11-18-13-11-9-10-9-8-7-7-7-7-8-13-16-9-13-7-10-12-21-12-23-10-26-7-23-5-26-2-16-1-15v-40l3-28 5-26 8-27 7-18 14-29 10-16 12-18 12-16 12-14 18-18 11-9 10-8 14-10 22-13 19-10 19-8 27-9 29-7 31-5z" fill="#E7EFEE"/>
<path transform="translate(354,365)" d="m0 0h13l2 3v84l1 39 2 15 4 14 8 18 10 16 12 13 10 10 14 10 14 8 17 8 16 5 19 3 12 1h11l20-2 19-5 19-8 16-9 13-9 12-11 9-10 10-14 8-16 5-16 3-12 1-8v-46l-1-56v-23l3-2h9l5 3 2 5 1 30 1 19-2 2-1 64-2 18-4 17-5 13-9 17-12 16-9 11-12 11-16 11-22 12-21 8-17 5-23 3-1 11-1-2-10-2h-1l1-8-16-1-15-3-20-6-20-9-14-8-17-12-12-11-9-11-10-13-9-16-6-14-5-19-2-16v-67l-5-2-11-7-4-6-1-13v-10l4-6 6-3 3 1 1 27h3l1-4 1-28 2-6z" fill="#E6EFEE"/>
<path transform="translate(405,863)" d="m0 0h26l52 1h139l7 4 5 6 4 8v7l-4 6-2 1-236 1-5-2-5-6-1-7 4-9 5-5 4-3z" fill="#E8F0EF"/>
<path transform="translate(824,348)" d="m0 0h1l2 14 1 24v20l-1 20-4 28-5 21-12 36-17 35-14 24-21 28-10 11-7 8-5 6-8 7-11 10-18 13-18 12-16 9-16 8-28 12-25 8-22 5-14 1v-15l36-8 27-9 20-8 25-13 15-10 14-10 10-8 15-13 18-18 9-11 13-18 10-15 13-24 11-25 8-21 6-26 4-22 3-25 2-3h3l-3-6-1-12-1-8 1-8 5-5 2-4 1-7 1-1z" fill="#B5C2C5"/>
<path transform="translate(688,695)" d="m0 0h16l14 3 12 6 10 8 4 5v3l-4 3-9-2-5-3-7-1 9 13 4 8 3 10v15l-4 13-7 12-6 7-4-2-1-6 8-10 4-9 1-5v-14l-3-10-6-10-5-4-4 6 7 10 2 5 1 6v11l-3 9-7 10-2 2-5-1v-7l4-2 3-9 1-4v-8l-3-10-6-8h-4l-1 6 5 9v13l-5 10-5 1-3-2 1-4 3-6v-10l-4-7-3 3h-2l1 4v9l-3 7-8 5-6-2-3-5-1 1 1 7 2 4 4 2 6 12 1 8-2 4v6l2 1-5-1-9-4-12-11-7-11-4-9-3-13-2-2v-9l1-2h2l1-10 5-13 4-6 6-8 12-9 10-5z" fill="#24DCF8"/>
<path transform="translate(309,468)" d="m0 0h12l9 6 5 6 1 4v8l-5 10-5 4-7 2 2 36 2 1h10l5 3 4 5 2 5v11l-4 6-3 3 1 3 6 4 7 8 7 2 7 3 7 9 3 7 5 2 15 15 5-1 6-4 3-1h8l8 4 4 5 2 5v10l-3 8-7 6-6 2h-7l-8-5-6-8-2-12-5-7-7-6-6-7-2-1-2 6-4 5-8 4-9-1-6-4-6-8-1-3v-8l4-8 5-5-4-2-6-5-6-8-11-1h-2l-6-12-1-8 3-12v-41l-6-2-8-7-2-4v-13l4-8z" fill="#25D7F4"/>
<path transform="translate(629,420)" d="m0 0 2 1 1 11v50l-4 19-6 15-10 18-9 11-9 9-14 10-6 3v-34l10-5 3-5v-10l-3-6-5-3h-7l-6 3h-2l-2 5-1 2v9l6 9-2 38-6 4-5 2h-5l-1-30v-46l1-15h63l4-5 1-7-4-5h3v-2h3l1-10 2-5 2-6 1-16-1-5z" fill="#C1D1D2"/>
<path transform="translate(719,717)" d="m0 0h7l8 4 6 1 4-2 1-2 7 12 4 12v24l-3 11-7 14-9 10-11 9-12 5-9 2h-12l-21-5-5-3 2-1 5 2-1-6 2-4-1-8-6-12-4-2-3-6 1-7 2 1 3 5 5 1 6-4h2l2-7v-13l5-4 5 8v10l-4 7v3l6 1 5-10v-13l-5-9 1-4 3-3 4 2 5 7 3 10v8l-4 11-4 4v7l5-1 7-10 3-9v-11l-2-9-7-11v-3l5-5 8 9 4 8 2 8v14l-3 10-6 9-4 5 1 6h4l8-11 5-11 2-8v-15l-5-15-7-10-3-4z" fill="#238AB3"/>
<path transform="translate(315,187)" d="m0 0h7l8 5 5 8v15l-5 8-8 5 1 33 5-5 7-8h17v-8l3-6 7-6h12l7 4 4 5 1 3v12l-5 8-6 3h-11l-8-4-1-2-19-1-2 4-7 8-11 12-8 7-11 12-7 7-7 8-27 27-7 8-4 4 2 4 24 24 7 10 22 1h12l8-1 1 1v7l-13 1h-83l1-7 1-1h19l23 1-3-5-27-27-4 2-9 7h-5l-1-5 11-10 8-7 7-8 14-14 7-8 16-16 7-8 14-14 7-8 3-1v-42l-11-9-3-7v-11l3-7 3-4h3v-2z" fill="#E5EDEC"/>
<path transform="translate(349,270)" d="m0 0h11l12 3 11 3 2 5-1 6 1 5 5 2 1 8v30h-1l-1-16h-1v-6l-3-1-3-9 2-4-2-2-1 5-1 3-9 5-7-1-2 1-2-4 1 3v9l-2 6h-2l-1 4-6 5-3 1h-11l-10-5-3-4-5 1-1 2-4 1-3 4-2-1v2l4 2 4 7v12l-4 8-7 5-3 1h-8l-8-4-6-7-1-3v-11l3-6 7-6 2-1-2-2 9-9 7-8 11-12 4-5h2l2-4 11-9 8-8z" fill="#364C58"/>
<path transform="translate(378,907)" d="m0 0h218l80 1 2 2-1 5-5 2-24 1h-299l-4-3v-6l1-1z" fill="#26D8F4"/>
<path transform="translate(782,309)" d="m0 0h7l4 7v12l-9 10-17 17-6 5-7 8-23 23-1 2h39l1-5 4-6 7-4h9l9 4 4 5 2 5v9l-4 8-5 4-6 2-8-1-8-5-4-4v-4l-40-1-4-1 6 8 7 6 7 8 9 10 7 7 7 8 24 24-2 12-3 7-2 2-7-1-3-4v-5l4-4h8l-7-8-20-20-6-5-7-8-12-13-12-12-7-9-17-3-3-3 1-3 23-2 11-13 11-12 21-21 8-7 10-10 5-2v-2l-5-1-4-4v-7z" fill="#E4EDEC"/>
<path transform="translate(348,160)" d="m0 0h7l5 5 1 11 9 10 12 12 8 7 25 25-4 4-4-1-5-4-7-8-14-14h-3l1 5 2 4 4 2v3l-5 2h-1l-3 3-4 2-10 1-7 6-2 5-1 8-17 1-10 12-3 1-1-34 9-6 4-7v-15l-6-9-4-2-2-4 4-1 1-4 4-6 5-2 4 11v3l4 2 11 5h10l-6-8-8-4-5-3-3-4v-9z" fill="#364C58"/>
<path transform="translate(688,695)" d="m0 0h16l14 3 12 6 10 8 4 5v3l-4 3-9-2-5-3-7-1 9 13 4 8 3 10v15l-4 13-7 12-6 7-4-2-1-6 8-10 4-9 1-5v-14l-3-10-6-10-5-4-4 6 7 10 2 5 1 6v11l-3 9-7 10-2 2-5-1v-7l4-2 3-9 1-4v-8l-3-10-6-8h-4l-1 6 5 9v13l-5 10-5 1-3-2 1-4 3-6v-10l-4-7-3 3h-2l1 4v9l-3 7-8 5-6-2-3-5-1 1 1 7 2 4 4 2 6 12 1 8-2 4v6l2 1-5-1-9-4-12-11-7-11-1-3h2l6 10 4 5h2v-7l1-8 1-14-2-6v-6l3-7 2-4 6-4h7l3-2 7 1 3-3 6 1 2-5 2-4 5-1-1-8 1-6 6-4 12-2h4l2 5 7 3h5l-6-7-10-5-5-3-7-2h-31l4-2z" fill="#42B8DA"/>
<path transform="translate(543,864)" d="m0 0h79l7 4 5 6 4 8v7l-4 6-2 1h-113v-1l11-1-1-4 6-11h2v-6l-3-7 9-1z" fill="#B4C1C4"/>
<path transform="translate(504,724)" d="m0 0h16l12 6 9 11 3 10v7l-4 13-6 8-9 6-6 2h-12l-10-4-8-7-4-6-3-13 2-13 7-11 8-7z" fill="#2A3948"/>
<path transform="translate(309,468)" d="m0 0h12l9 6 5 6 1 4v8l-5 10-5 4-7 2 2 36 2 1h10l5 3 4 5 2 5v11l-4 6-4 5-7 2-11-1h-2l-6-12-1-8 3-12v-41l-6-2-8-7-2-4v-13l4-8z" fill="#46DEF1"/>
<path transform="translate(656,365)" d="m0 0h9l5 3 2 5 1 30 1 19-3 4-1 52-1 2-1 9-3 7-1 9 1 4-2 10-11 3-1-1-1 2h-2l2-11 3-12 1-8v-46l-1-56v-23z" fill="#E6EEED"/>
<path transform="translate(617,470)" d="m0 0h2l1 7-5 9-2 2h-17l4 6v2h2l1 2v6l-3 8h-2l-2 4-7 1-5-10-5-3h-7l-6 3h-2l-2 5-1 2v9l6 9-2 38-6 4-5 2h-5l-1-30v-46l1-15h63l4-5 1-7z" fill="#E7EFEE"/>
<path transform="translate(293,411)" d="m0 0h8l8 4 6 8 1 3v10l-3 3-1-7-6 2-3-9-2-2h-8l-3 5v8h-2l-1 7 1 2h-2l-2 4-8 8-7 8-9 9v4l3 2 9 1 2-4 16-16 3-1 15-2 12-3h5l2 3-1 5-7-1-11 3-6 7-4 4-4 7-6 1v2l-7 5-1 5 6 7 3 3 5 3 9 8 5 5v4l-6-2-10-5v-2l-5-2-5-5-11-12-2-1v-2h-2v-2l-3-1-8-11-5 1-5 6-5 3-3-1v-6l10-9 32-32v-7l-1-2v-8l4-8 3-3h2v-2z" fill="#364C58"/>
<path transform="translate(814,410)" d="m0 0 1 2-1 22-4 16-5 23-4 15-12 30-8 16-10 18-11 17-12 16-10 13-21 21-10 8-5 5h-2v2l-18 13-21 13-17 9h2l2 1 1 6 4 2-12 6-27 11-22 7-22 5-14 1v-15l36-8 27-9 20-8 25-13 15-10 14-10 10-8 15-13 18-18 9-11 13-18 10-15 13-24 11-25 8-21 6-26 4-22 2-19z" fill="#C2D1D2"/>
<path transform="translate(824,348)" d="m0 0h1l2 14 1 24v20l-1 20-4 28-5 21-12 36-3 3v-2h-2l-1 4h-2l-1 6-5 4-7-2 8-18 8-21 6-24 4-21 2-6 1-23-1-2 2-3h3l-3-6-1-12-1-8 1-8 5-5 2-4 1-7 1-1z" fill="#C0D0D1"/>
<path transform="translate(699,438)" d="m0 0 11 2 5 4 3 7v11l-6 9-7 4h-2v57l-1 67 2 4v9l-5 4-6-1-2-3v-7l4-6 1-124-6-2-5-6-3-6v-9l3-6 7-6z" fill="#26D1EF"/>
<path transform="translate(658,597)" d="m0 0h10l6 4 4 5 2 4v11l-5 8-10 5-6-1 3-3 6-2 3-10-1-7-1-3h-10l-4 4-1 6h-3l-1 5-3 1-1-4-9 6-10 9-3 4h-2v15l-4 8-8 6h-10l-8-5-5-8v-11l5-8 7-4h11l9 3 2-4 14-14 8-7 7-9z" fill="#C2D2D3"/>
<path transform="translate(750,264)" d="m0 0h11l5 2v2l4 2 4 5 1 10-3 7-6 7-3 2h-3v22l-1 15-7 1-12 11-13 13-7 8-8 8-8 6-4-1-1-4 9-10 8-7 19-19 8-7 6-4h3l1-23 1-9-6-2-5-4-4-8v-9l5-10z" fill="#27D3F1"/>
<path transform="translate(754,453)" d="m0 0 5 1 1 20v17l5 2 4 6 2 9-1 10-4 6-5 4-5 2h-10l-7-2-7-7-2-4v-14l4-8 6-5 7-2h5v-34z" fill="#B5C2C5"/>
<path transform="translate(687,736)" d="m0 0 6 1 5 9 2 4v13l-5 10-5 1-3-2 1-4 3-6v-10l-4-7-3 3h-2l1 4v9l-3 7-8 5-6-2-3-5-1 1 1 7 2 4 4 2 6 12 1 8-2 4v6l2 1-5-1-9-4-12-11-7-11-1-3h2l6 10 4 5h2v-7l1-8 1-14-2-6v-6l3-7 2-4 6-4h7l3-2 7 1z" fill="#44B9DB"/>
<path transform="translate(495,204)" d="m0 0h3l3 49 4 6 3 2v22l-11 7-8-11-10-8 2-5v-22l1-37z" fill="#E7EFEE"/>
<path transform="translate(552,467)" d="m0 0 61 1 5 5-1 7-5 6h-56l-7-1v15l-1 9h-1v-5l-4-1-1 3-1 30h-1v-32l2-28 4-6 2-2z" fill="#2A3A4A"/>
<path transform="translate(525,205)" d="m0 0 15 1 1 1 1 35-1 20 2 9-17 17-5-3-4-1-1-24 6-3 1-3z" fill="#E7EFEE"/>
<path transform="translate(388,140)" d="m0 0h10l8 4 4 5 2 5 1 9 26 2 4 5 7 8 10 9 2 5-3 4-4-2-9-11-8-8-3-1-19-2h-8l-5 4-2 1h-10l-8-4-2-2v-3h-2l-1-3v-12l3-6z" fill="#47DFF2"/>
<path transform="translate(412,468)" d="m0 0h61l6 4 1 2v6l-3 10h2l2 5 1 15-5-3-2 1v-18l1-3-61-1-6-3-3-5 1-6z" fill="#2A3746"/>
<path transform="translate(332,290)" d="m0 0h16l4 2 6 7 3 7v9l-2 6h-2l-1 4-6 5-3 1h-11l-10-5-4-6-2-5v-9l3-8 4-5z" fill="#25D7F4"/>
<path transform="translate(392,139)" d="m0 0h10l10 4 2 6 2 2 15 1 8-1 6-3 3-3h2l7 8 5 3 4 4 1 6 5-1v29l-7-2-2-4-2-1-1 2-7-8-8-7-6-8-26-2-1-1-2-12-4-6-8-4-6-1z" fill="#364C58"/>
<path transform="translate(722,207)" d="m0 0h8l7 5 2 4v11l-7 8-3 2v102l-6-2-1-1v-24l-1-75-7-6-2-5v-10l1-2h2l2-4z" fill="#E1EAEA"/>
<path transform="translate(691,173)" d="m0 0 8 1 6 5 2 4-1 10-4 6-4 2v31l-1 75-1 9-1 2h-3l-2-11v-99l-2-7-7-7v-10l3-5 5-5z" fill="#E3EBEB"/>
<path transform="translate(471,112)" d="m0 0h7l6 3 6 7 2 6v8l-4 8-7 6-1 44h-5l-1-1v-42l-6-1-6-4-5-8v-12l2-5h2v-3h2l2-4z" fill="#26D3F1"/>
<path transform="translate(549,113)" d="m0 0 9 2 6 5 3 5 1 8-3 8-4 5-6 3h-4v37l-2 6-4 1-1-3-1-19v-24l-5-1-4-5-2-5v-9l3-6 5-5z" fill="#E5EEED"/>
<path transform="translate(626,139)" d="m0 0 9 1 6 4 5 9v10l-3 6-6 5-3 1h-14l-30 30-5 2-4-2 3-5 30-30-2-6v-12l3-6 7-6z" fill="#E6EEEE"/>
<path transform="translate(556,369)" d="m0 0h54l5 3 3 4v5l-4 5-4 2-57 1-5-3-3-5 1-6 4-5z" fill="#293847"/>
<path transform="translate(551,435)" d="m0 0h60l5 3 3 4-1 5-4 5-2 1h-62l-6-7 2-7z" fill="#293C4C"/>
<path transform="translate(550,403)" d="m0 0h62l5 4 1 5-3 6-5 3h-59l-6-5-1-5 3-5z" fill="#2A3745"/>
<path transform="translate(413,435)" d="m0 0h58l6 3 3 5-1 5-5 5h-61l-6-5-1-6 3-5z" fill="#2A3948"/>
<path transform="translate(543,864)" d="m0 0h67v1h-38v12l2 17h5v1l-60 1v-1l11-1-1-4 6-11h2v-6l-3-7 9-1z" fill="#C1D1D2"/>
<path transform="translate(587,303)" d="m0 0h25l6 5v7l-4 5-2 1-9 1h-49l-5-3-3-3-1-6 2-4 3-2z" fill="#293847"/>
<path transform="translate(467,303)" d="m0 0 8 2 4 4v6l-4 5-7 2h-55l-5-4-2-4 1-6 5-4z" fill="#2A3847"/>
<path transform="translate(554,336)" d="m0 0h55l7 3 2 3v6l-4 5-3 1h-60l-6-5v-7l5-5z" fill="#293847"/>
<path transform="translate(801,512)" d="m0 0h2l1 3-14 29-13 23-8 11-14 19-5 6h-2v-2h-5l-5 3-3-3 6-8 10-13 13-18 16-28 5-10 8 1 3-5 2-4h2z" fill="#B5C2C5"/>
<path transform="translate(413,403)" d="m0 0h60l6 6-1 7-5 4-3 1h-55l-6-3-2-3v-7z" fill="#293949"/>
<path transform="translate(643,185)" d="m0 0h9l8 4 4 6 1 3v10l-4 8-6 4-10 1-7-3-6-5-7 7-3 4h-2l-2 4-3 3-6-1 1-4 7-8 11-11 3-12 6-7z" fill="#E5EDED"/>
<path transform="translate(539,782)" d="m0 0 4 1v71l-1 1h-21l2-1 1-10-1-22v-14l3-11 8-7z" fill="#C1D0D1"/>
<path transform="translate(412,337)" d="m0 0h62l5 4 1 6-6 7-59 1-6-3-3-5 1-6z" fill="#293645"/>
<path transform="translate(315,187)" d="m0 0h7l8 5 5 8v15l-5 8-9 6-6 1-12-10-3-7v-11l3-7 3-4h3v-2z" fill="#47E0F3"/>
<path transform="translate(291,328)" d="m0 0h13l7 4 5 8v12l-4 8-7 5-3 1h-8l-8-4-6-7-1-3v-11l3-6 7-6z" fill="#E6EEED"/>
<path transform="translate(454,640)" d="m0 0 9 1 6 4 4 5 3 8-1 7-4 8-5 4-6 2-9-1-6-4-5-6-1-3v-9l3-8 7-6z" fill="#23DBF7"/>
<path transform="translate(316,545)" d="m0 0h17l5 3 4 5 2 5v11l-4 6-4 5-7 2-11-1h-2l-6-12-1-8 4-15z" fill="#3EB1D4"/>
<path transform="translate(293,411)" d="m0 0h8l8 4 6 8 1 3v10l-3 3-1-7-6 2-3-9-2-2h-8l-3 5v8h-2l-1 7 1 2h-2l-2 4-8 8-7 8-20 20-8 6-3-1v-6l10-9 32-32v-7l-1-2v-8l4-8 3-3h2v-2z" fill="#45DDF0"/>
<path transform="translate(558,643)" d="m0 0h8l7 4 6 8 1 7-2 9-4 5-6 4-8 1-9-4-5-8-1-10 3-9 7-6z" fill="#27D7F4"/>
<path transform="translate(405,174)" d="m0 0 2 4 4 5 4 3h9v2h2v2l2 1v3h-2l7 8 6 7-4 3-4-1-8-8-3-2h-3l2 7-3 6-2 1-9-1-2-1v2h-2v-2l-4-2-1-4-2-5-7-10-5-7 2-1 9 3 15 1-7-8v-4z" fill="#364C57"/>
<path transform="translate(670,426)" d="m0 0h1v62l-2 18-4 17-5 13-9 17-12 16-4 4-1-4-1-5-5-2-2 6-4 3-3-1 3-1 2-5 8-9 9-15 5-9 4-11 4 1 4-2h3l3-11-1-3 1-10 3-6 1-9 1-2z" fill="#C0D0D1"/>
<path transform="translate(696,477)" d="m0 0h7v55l-1 67 2 4v9l-5 4-6-1-2-3v-7l4-6z" fill="#BDCDCE"/>
<path transform="translate(660,312)" d="m0 0h8l8 5 4 7v12l-7 8-4 2h-10l-8-7-3-7 1-10 4-6 4-3z" fill="#C0CFD0"/>
<path transform="translate(449,503)" d="m0 0 8 1 5 4 4 7v7l-3 6-7 5 3 37-3-1-3-10h-2v-24l-6-2-5-5-3-7 1-9 6-7z" fill="#2A3B4B"/>
<path transform="translate(275,233)" d="m0 0h10l7 4 4 6v12l-2 4-7 6-3 1h-7l-8-4-4-5-2-8 3-9 6-6z" fill="#47DFF2"/>
<path transform="translate(348,160)" d="m0 0h7l5 5 1 11 9 10 12 12 8 7 25 25-4 4-4-1-5-4-7-8-14-14-10-8-11-12-4-4-9-4-4-5v-9z" fill="#E5EDEC"/>
<path transform="translate(292,215)" d="m0 0 4 1 3 4 2 9 6 2 4-1 2-3 2 2v40l-3 3-6 2-1 2-3-3 1-7 2-6 1-5v-7l-5-5-5-2v-3l-4-2-7-2v-2h-6l1-5 6-7h2v-2z" fill="#364C58"/>
<path transform="translate(572,503)" d="m0 0h7l5 3 3 4 1 3v10l-4 6-7 4h-3v20h-1l-1-5-2-2-2 1-2 3v-18l-6-9v-9l4-7z" fill="#2A3B4A"/>
<path transform="translate(755,302)" d="m0 0 5 1v20l-1 15-7 1-12 11-13 13-7 8-8 8-8 6-4-1-1-4 9-10 8-7 19-19 8-7 6-4h3l1-23 1-7z" fill="#E1EAEA"/>
<path transform="translate(814,410)" d="m0 0 1 2-1 22-4 16-5 23-4 15-12 30-8 16-10 18-11 17-12 16-10 13-21 21-10 8-5 5h-2v2l-18 13-21 13-17 9-15 6-18 7-6 2-4-1 10-4 26-10 20-10 16-10 12-8 17-13 10-9 8-7 16-16 9-11 13-18 10-15 13-24 11-25 8-21 6-26 4-22 2-19z" fill="#E3ECEB"/>
<path transform="translate(331,580)" d="m0 0h6l7 5 7 8 7 2 4 1-1 2-4 2-3 5-5 2-3 5v6l5 4 9 1 4-1 6 1-2 5-7 5-8 1-8-3-7-8-2-5v-8l4-8 5-5-4-2-6-5-5-7z" fill="#E5EDEC"/>
<path transform="translate(360,597)" d="m0 0 5 1 7 9 3 7 5 2 15 15-2 4-3 1-10-9-6-7-2-1-1 4h-10l-1 1-9-1-6-5v-6l4-6 5-1 2-5 4-1z" fill="#C0CFD0"/>
<path transform="translate(658,597)" d="m0 0h10l6 4 4 5 2 4v11l-5 8-10 5-6-1 3-3 6-2 3-10-1-7-1-3h-10l-4 4-1 6h-3l-1 5-3 1-1-4-10 6-1-1v-5l2-1 1-4 9-10 5-5z" fill="#B5C2C5"/>
<path transform="translate(332,290)" d="m0 0h16l4 2 6 7 2 4v11h-1l-2-9-1-2-5 2v8l-2 1-2-9-5-3h-7l-3 2-1 9 5 5 8 1v2h-8l-5-1-2 5 5 3 13 2v1h-11l-10-5-4-6-2-5v-9l3-8 4-5z" fill="#43D4EB"/>
<path transform="translate(377,151)" d="m0 0h1l1 17h2l2 4 8 4 10 1 3 5 4 4v2h-15l-13-4-6-2-3-3-9-3-2-2v-8h1l2-7h3l9-5z" fill="#364B56"/>
<path transform="translate(518,683)" d="m0 0 2 1h16l5 2 1 1v36l-11-6-7-5-2-5-1-14-2-6z" fill="#C1D0D1"/>
<path transform="translate(722,207)" d="m0 0h8l7 5 2 4v11l-7 8-5 3-5 1-5-5-4-5-1-3v-10l1-2h2l2-4z" fill="#25D6F3"/>
<path transform="translate(715,718)" d="m0 0 5 1 8 11 4 8 3 10v15l-4 13-7 12-6 7-4-2-1-6 8-10 4-9 1-5v-14l-3-10-6-10-4-4 1-6z" fill="#E5EEED"/>
<path transform="translate(336,202)" d="m0 0 5 1 4 4-2 15-5 10-4 3v7l1 3 11 1v1l-9 1-5 5-7 8-3 1-1-34 9-6 4-7z" fill="#2A3745"/>
<path transform="translate(824,348)" d="m0 0h1l2 14 1 24v20l-1 20h-1l-1-12-1-2h-3v-2h-2l-4-4h3l-3-6-1-12-1-8 1-8 5-5 2-4 1-7 1-1z" fill="#B5C2C5"/>
<path transform="translate(783,387)" d="m0 0h6l6 5 1 2 2-2 4 1 2-4 1 3v9l-4 8-5 4-6 2-8-1-4-2-3-7 2-5v-6l4-6z" fill="#C0D0D1"/>
<path transform="translate(640,232)" d="m0 0h12l5 6 2 5v8l-4 7-5 2h-8l-6-4-4-8 2-10 5-5z" fill="#238AB3"/>
<path transform="translate(258,273)" d="m0 0 9 1 6 7v10l-4 6-4 3-7 1-7-3-5-6v-10l6-7z" fill="#E6EEED"/>
<path transform="translate(691,173)" d="m0 0 8 1 6 5 2 4-1 10-4 6-4 2-2 2h-6l-6-5-3-4v-10l3-5 5-5z" fill="#26D3F1"/>
<path transform="translate(471,112)" d="m0 0h7l6 3 6 7 1 3v9h-1l-1-5-5 2-1 3h-1l-2-8-9-1-3 4 1 7 3 2v2h5l-3 2-10 2-2 2-5-8v-12l2-5h2v-3h2l2-4z" fill="#46DDF1"/>
<path transform="translate(712,724)" d="m0 0 6 5 6 10 3 10v14l-3 10-6 9-5 6h-2l-3-3h-2l2-4 7-11 2-7v-11l-2-9-7-11v-3z" fill="#2B3E4D"/>
<path transform="translate(621,640)" d="m0 0h1v14l-4 8-8 6h-10l-8-5-2-4 6-4v-7l5-6h7l4 4 2 4 1-2h6z" fill="#B5C2C5"/>
<path transform="translate(341,376)" d="m0 0 3 1 1 27h3l2-4v18l-1 3-5-2-9-6-3-5-1-13v-10l4-6z" fill="#BFCFD0"/>
<path transform="translate(211,373)" d="m0 0h1l1 7 8 6 2 3v8l-3 8-3 2-11 2-6-4-2-4v-9l5-8 7-3z" fill="#354F5B"/>
<path transform="translate(506,737)" d="m0 0h13l6 4v3l-6 5-10-1-4 4v7l3 4 9 2-1 2h-2l-1 5 3 1-2 1-9-1-8-7-3-8 1-9 5-8z" fill="#E6EEEE"/>
<path transform="translate(548,520)" d="m0 0h1v21h2l2 7 4-1 6-11h3v20l-1 14-6 4-5 2h-5l-1-30z" fill="#C1D1D2"/>
<path transform="translate(524,743)" d="m0 0 4 1 3 8-1 9-6 9-7 4-3-1-1-3 1-3 2-1-9-3-3-4v-7l5-5h6l4 1z" fill="#C0D0D1"/>
<path transform="translate(743,600)" d="m0 0 5 1 1 3-14 15-17 17-5-2 1-5-4-2v-2l4-1 2-4 7-8 11-11h2l2 2z" fill="#B5C2C5"/>
<path transform="translate(293,422)" d="m0 0h8l4 4 2 7 6-2 1 9-4 5-6 3-10 1-8-3v-3l2-7h2l-1-8z" fill="#28D4F0"/>
<path transform="translate(668,742)" d="m0 0 6 1 8 7 1 2v9l-3 7-8 5-6-2-4-6v-15l3-6z" fill="#E2EBEB"/>
<path transform="translate(726,555)" d="m0 0 9 1 5 6 1 3v8l-4 6-3 2h-8l-6-4-3-5v-7l3-6z" fill="#B5C2C5"/>
<path transform="translate(269,528)" d="m0 0h9l6 4 2 4v7l-2 5h-2l-2 4-9 1-6-4-3-6v-8l5-6z" fill="#27D7F3"/>
<path transform="translate(511,348)" d="m0 0h6l6 5 2 5v8l-4 6-2 2-6 1-7-4-4-6v-9l6-7z" fill="#44DFF2"/>
<path transform="translate(700,729)" d="m0 0h5l5 5 6 9 2 9v11l-3 9-7 10-2 2-5-1v-7l4-2 3-9 1-4v-8l-3-10-7-10z" fill="#E2EDEC"/>
<path transform="translate(700,410)" d="m0 0 6 1 13 13 8 7 9 10 8 10 1 4-9-2-24-24-7-6-6-8z" fill="#E2EBEB"/>
<path transform="translate(599,908)" d="m0 0h77l2 2-1 5-5 2-24 1h-99v-1l83-1 13-1-3-4-3-1-40-1z" fill="#41B6D8"/>
<path transform="translate(233,422)" d="m0 0h10l5 5 1 4v7l-3 5-5 3h-6l-6-4-3-3v-9l4-6z" fill="#E5EDEC"/>
<path transform="translate(672,373)" d="m0 0 9 6 1 6-1 7-1 6 3 7 4 4-1 8-6 4-7 2-1-20z" fill="#238AB3"/>
<path transform="translate(696,477)" d="m0 0h7v55l-1 20-3-1-1 10h-1z" fill="#E5EDED"/>
<path transform="translate(411,164)" d="m0 0h17l11 1 4 5 7 8 10 9 2 5-3 4-4-2-9-11-8-8-3-1-25-3-1-4z" fill="#E3ECEB"/>
<path transform="translate(659,607)" d="m0 0h10l3 7-1 7-2 7-3 2-7 3-6-1-5-4-1-4 3-3 1-3h3v-6z" fill="#2A4051"/>
<path transform="translate(280,443)" d="m0 0 5 1v4l-9 9-7 8-20 20-8 6-3-1v-6l10-9z" fill="#E1EAEA"/>
<path transform="translate(509,131)" d="m0 0h5l1 1 1 20v33l-4 4-5-2-1-4 1-4 1-47z" fill="#E4ECEC"/>
<path transform="translate(507,106)" d="m0 0h12l5 5v9l-4 6-5 2h-8l-5-4-2-4v-7l4-5z" fill="#46E1F3"/>
<path transform="translate(764,447)" d="m0 0 4 2 5 3 6 4 14 14-2 12-3 7-2 2-7-1-3-4v-5l4-4h8l-7-8-19-19v-2z" fill="#C2D1D2"/>
<path transform="translate(594,147)" d="m0 0h2v9l-7 7-8 7-9 10-7 8-5 6-5-3 1-5 9-9 7-8 11-12 8-8z" fill="#E2EBEA"/>
<path transform="translate(784,425)" d="m0 0h10l4 2 2 4v10l-4 5-4 2h-6l-6-5-2-8 3-7z" fill="#41B6D8"/>
<path transform="translate(698,734)" d="m0 0 4 2 5 7 3 10v8l-4 11-5 6-2 2-4-5 1-5 3-7v-13l-5-9 1-4z" fill="#2B3F4E"/>
<path transform="translate(665,562)" d="m0 0h10l5 4 2 9-3 6-5 3h-8l-5-5-2-5 1-7z" fill="#41B5D8"/>
<path transform="translate(789,345)" d="m0 0 7 1 4 4 1 3v7l-5 6-4 2h-7l-5-4-1-2v-9l5-6z" fill="#40B4D7"/>
<path transform="translate(509,294)" d="m0 0h6l7 6 2 4-1 7-4 5-9 1-6-4-3-6 1-7z" fill="#47E1F3"/>
<path transform="translate(254,498)" d="m0 0 7 1 5 5 1 2v8l-3 5-6 3-5-1-7-6v-10l5-6z" fill="#2AD2EF"/>
<path transform="translate(296,335)" d="m0 0 7 1 5 5 1 8-4 6-4 2h-8l-5-4-1-2v-9l4-5z" fill="#293A49"/>
<path transform="translate(271,486)" d="m0 0 5 1 4 9 6 7 3 3 5 3 9 8 5 5v4l-6-2-10-5v-2l-5-2-5-5-11-12-3-3 1-7z" fill="#374C57"/>
<path transform="translate(755,302)" d="m0 0 5 1v20l-1 15-7 1-12 11-2 1-1-8 8-8 4-2h3l1-23 1-7z" fill="#DEE7E7"/>
<path transform="translate(277,425)" d="m0 0h1l1 10 2 1v7l-20 20-4 1-2 2-3-9 6-7 2-2 3 1 1-2 2 2h1l1-8h2v-4l-2-1 2-3 7 1-1-7z" fill="#354A56"/>
<path transform="translate(593,123)" d="m0 0h6l6 5 1 3v9l-5 5-5 1-8-6-2-7 3-7z" fill="#E5EDED"/>
<path transform="translate(507,204)" d="m0 0h9l1 9v21l-1 7-4 2h-3l-1-3-1-20z" fill="#E4EDEC"/>
<path transform="translate(747,500)" d="m0 0h8l5 3 2 7-3 6-5 4h-6l-7-6-1-6 4-6z" fill="#2A3E4E"/>
<path transform="translate(360,174)" d="m0 0 3 1 9 4 3 3 7 2 7 9 6 9 4 12-7-6-8-8-8-7-14-14z" fill="#2A3746"/>
<path transform="translate(322,547)" d="m0 0h12l3 3v2l-3 2-10-1v2h-3v2h-2v13l5 2h10l2 1-1 4-4 2h-13l-3-3-2-5v-13l6-4 1-4z" fill="#24DEF9"/>
<path transform="translate(337,290)" d="m0 0h11l4 2 6 7 2 4v11h-1l-2-9-1-2-5 2v8l-2 1-2-9-5-3-7-1-6-3v-3h2v-2l6-1z" fill="#46DCF0"/>
<path transform="translate(688,738)" d="m0 0 5 1 6 8 1 3v13l-5 10-5 1-3-2 1-4 3-6v-10l-5-8 1-5z" fill="#E3EDED"/>
<path transform="translate(365,236)" d="m0 0h7l5 4 2 7-3 5-3 3h-7l-6-4-1-2v-7l5-5z" fill="#2A3A49"/>
<path transform="translate(338,615)" d="m0 0h1v5l8-1 4 3 9 1 4-1 6 1-2 5-7 5-8 1-8-3-7-8-1-5z" fill="#C0D0D1"/>
<path transform="translate(274,275)" d="m0 0 5 1h10l6 5 1 5-2 3h-2v2l-6 1-8-3-3-3-2 1-2-8-2-3z" fill="#364D59"/>
<path transform="translate(644,194)" d="m0 0 9 1 4 5v7l-5 5-5 1-5-2-4-5v-7l4-4z" fill="#2A3948"/>
<path transform="translate(335,301)" d="m0 0h7l5 3 2 4v6l-5 5h-8l-6-6 1-9z" fill="#2B3745"/>
<path transform="translate(824,348)" d="m0 0h1l2 14v23l-14-1 1-12 5-5 2-4 1-7 1-1z" fill="#C0D0D1"/>
<path transform="translate(783,387)" d="m0 0h6l6 5 1 7-4 5-2 1h-7l-6-5v-6l4-6z" fill="#2A3C4C"/>
<path transform="translate(349,606)" d="m0 0h10l4 4 1 7-5 6-5 1-6-3-3-3v-6z" fill="#293E4E"/>
<path transform="translate(312,587)" d="m0 0h6l4 5v10l-5 5h-6l-5-5v-7l3-6z" fill="#47E1F3"/>
<path transform="translate(674,374)" d="m0 0 4 1 6 4 5 8 2 6v8l-3 14-2 2v-8l-6-7-1-8 2-5v-8l-5-5z" fill="#374C57"/>
<path transform="translate(379,171)" d="m0 0 4 1 8 4 10 1 3 5 4 4v2h-15l-11-4-2-6-1-1z" fill="#2A3543"/>
<path transform="translate(754,453)" d="m0 0 5 1v34l-4 2h-9l1-2h5v-34z" fill="#BECECF"/>
<path transform="translate(476,151)" d="m0 0 4 1v42h-5l-1-1v-41z" fill="#E7EFEE"/>
<path transform="translate(312,478)" d="m0 0 7 1 5 4v9l-4 4h-7l-5-4-2-3v-5l4-5z" fill="#2A3543"/>
<path transform="translate(314,509)" d="m0 0h5l2 36-8 1-1-15v-20z" fill="#E2EBEB"/>
<path transform="translate(675,652)" d="m0 0 3 1 1 5-1 3 4-1v2l-19 11-6 3h-3v-2h3l-1-3 2-5 5-1-1-3 2-1 1 1v-2l3-3h2v-2l5-1z" fill="#C0CFD0"/>
<path transform="translate(426,123)" d="m0 0h6l5 5v9l-5 5h-6l-5-5v-7l4-6z" fill="#DCE9EA"/>
<path transform="translate(509,747)" d="m0 0h6l6 5-1 9-4 4-8-1-4-5v-7z" fill="#2A3B4B"/>
<path transform="translate(719,616)" d="m0 0h6l7 3 2-1-1 4-10 9-5 5-5-2 1-5-4-2v-2l4-1 2-4z" fill="#C0D0D1"/>
<path transform="translate(309,468)" d="m0 0h12l2 1v5l-2 2-9 1v2l-7 1-1 2v-2h-4l-1 8-2 7h-1v-13l4-8z" fill="#29D6F2"/>
<path transform="translate(538,793)" d="m0 0h3l1 3v44l-2 4-3-16-1-3v-26z" fill="#B5C2C5"/>
<path transform="translate(412,188)" d="m0 0 7 1 10 9 10 10-4 4-4-1-8-8-8-6-3-5z" fill="#B5C2C5"/>
<path transform="translate(624,149)" d="m0 0h8l5 5v6l-4 5-6 1-5-3-2-3v-7z" fill="#293C4C"/>
<path transform="translate(473,114)" d="m0 0h10l7 8 1 3v9h-1l-1-5-5 2-1 3h-1l-2-8-2-1-2-5-4 2-4-1-1-5z" fill="#24DBF7"/>
<path transform="translate(408,637)" d="m0 0h9l4 4v8l-5 4h-6l-4-2-2-4 1-7z" fill="#2A3643"/>
<path transform="translate(286,560)" d="m0 0 9 1 3 5-1 7-4 4h-8l-3-4v-7z" fill="#45DAEF"/>
<path transform="translate(656,315)" d="m0 0 7 1v4l2 1-6 5-1 9-4 3-4-1-2-5 1-10 4-6z" fill="#E4ECEC"/>
<path transform="translate(237,310)" d="m0 0h8l4 5-1 7-5 4h-6l-5-6-1-3 3-5z" fill="#E5EEED"/>
<path transform="translate(547,123)" d="m0 0 8 1 3 4v6l-4 5-7 1-5-5v-7z" fill="#2A3B4B"/>
<path transform="translate(670,426)" d="m0 0h1v62l-2 18-3 13-3-1 1-10-1-3 1-10 3-6 1-9 1-2z" fill="#BECDCF"/>
<path transform="translate(686,744)" d="m0 0 4 4 2 4v10l-4 7-1 1h-8l3-9v-13z" fill="#2B3D4C"/>
<path transform="translate(601,642)" d="m0 0h7l4 4 1 5-3 5-4 3-6-2-3-3-1-6z" fill="#2A3D4D"/>
<path transform="translate(654,612)" d="m0 0h1l3 9 6 2 5-3 2-2-1 5-1 6-8 3-5 1-7-4-2-5 3-3 1-3h3z" fill="#258AB3"/>
<path transform="translate(293,422)" d="m0 0h8l4 4 1 6-4 5-2 1h-6l-5-6 1-6z" fill="#2A3543"/>
<path transform="translate(690,256)" d="m0 0h1v28l-1 23-2-2-4-1-2-3 1-12 2-2 2 1v-20z" fill="#345463"/>
<path transform="translate(454,652)" d="m0 0 6 1 4 3v9l-5 4-7-1-3-4v-6z" fill="#2A3644"/>
<path transform="translate(654,238)" d="m0 0 3 4v10l-3 5-7 1-10-1-3-4v-9l2-1v2h4l3 7 6 1 1-3h2v-6z" fill="#42B7D9"/>
<path transform="translate(315,198)" d="m0 0 7 1 3 5-1 7-4 4-7-1-3-5v-7z" fill="#2A3745"/>
<path transform="translate(551,255)" d="m0 0h9l4 6v6l-1 2-8 1-6-2-1-2 1-9z" fill="#3FB3D6"/>
<path transform="translate(662,322)" d="m0 0h7l4 4v7l-5 5-7-1-4-5 1-6z" fill="#2A4051"/>
<path transform="translate(466,643)" d="m0 0 6 5 4 10-1 7-4 8-3 3-2-1 4-5 1-9-2-2-6 10-7 2-6-3-3-5 1-5h1l2 8 4 2 6-1 2-2v-9l-5-3-4-2h6l6 4 4-2-3-7z" fill="#3FB2D5"/>
<path transform="translate(233,454)" d="m0 0 6 1 4 5-1 7-4 3h-7l-3-3v-8z" fill="#46DCF0"/>
<path transform="translate(199,333)" d="m0 0 2 4-2 17-1 9-2 1-1 10h-1v-20l-4-8 1-7 5-5z" fill="#354D59"/>
<path transform="translate(326,554)" d="m0 0 6 2 2 4v6l-4 5h-6l-4-3v-10h2v-2z" fill="#2B3846"/>
<path transform="translate(782,309)" d="m0 0h7l4 7v12h-1v-5l-5 2-8-4-1-2v-7z" fill="#48E3F5"/>
<path transform="translate(230,334)" d="m0 0h7l3 1 2 5-2 3h-2v2l-3 1-1 2 2 1-4 4-6-2v-9l3-7z" fill="#374C57"/>
<path transform="translate(646,908)" d="m0 0h30l2 2-1 5-3-1-18 2-7-4z" fill="#238AB3"/>
<path transform="translate(665,159)" d="m0 0h7l3 4v8l-4 3h-7l-4-5 1-6z" fill="#E6EEED"/>
<path transform="translate(391,151)" d="m0 0h7l4 4v6l-5 5-8-1-2-4v-6z" fill="#2A3947"/>
<path transform="translate(467,254)" d="m0 0 6 1 3 4-1 9-1 1h-10l-3-5 2-7z" fill="#3CB1D4"/>
<path transform="translate(749,241)" d="m0 0 7 1 2 2v8l-4 4h-8l-3-5 1-6z" fill="#4EDEF1"/>
<path transform="translate(471,124)" d="m0 0h6l5 5-1 6-5 5h-4v-2l-4-2-1-7z" fill="#2A3644"/>
<path transform="translate(443,172)" d="m0 0 7 6 10 9 2 5-3 4-4-2-9-11-7-7 1-2h3z" fill="#BECDCF"/>
<path transform="translate(451,533)" d="m0 0 5 1 3 36-3-1-3-10h-2z" fill="#315D70"/>
<path transform="translate(316,545)" d="m0 0h6l-1 5-2 5-5 3v13l3 6 1 1 10 1v1l-12 1-6-12-1-8 4-15z" fill="#40B6D8"/>
<path transform="translate(752,535)" d="m0 0 5 3 2 3v6l-2 4-6 2-4-2-1-2v-8l4-5z" fill="#E0EAE9"/>
<path transform="translate(697,449)" d="m0 0h6l4 3 1 4-2 5-3 3h-5l-5-5v-7z" fill="#2A3543"/>
<path transform="translate(560,655)" d="m0 0 8 1 2 2v8l-4 3h-7l-3-2-1-6 3-5z" fill="#2A3644"/>
<path transform="translate(331,580)" d="m0 0h6l7 5 7 8 1 2-4 2h-5l-8-7-5-7z" fill="#BECDCF"/>
<path transform="translate(195,385)" d="m0 0h1v22h-3l-1-4-4-2-4-3v-6l9-6z" fill="#355260"/>
<path transform="translate(791,475)" d="m0 0 1 2-3 11-3 3-7-1-3-4v-5l4-4h9z" fill="#48E2F5"/>
<path transform="translate(449,511)" d="m0 0h5l5 6-1 6-3 3h-7l-3-4v-7z" fill="#48E2F4"/>
<path transform="translate(271,486)" d="m0 0 5 1 4 9 4 6-1 5-4-1-11-11 1-7z" fill="#B5C2C5"/>
<path transform="translate(520,358)" d="m0 0h4 1v8l-4 6-4 2-6-5-1-7 1-2z" fill="#25D0EE"/>
<path transform="translate(754,275)" d="m0 0h6l4 4-1 7-3 3h-6l-4-4v-7z" fill="#2A3543"/>
<path transform="translate(632,673)" d="m0 0 3 1-3 3v3l-5 1-4-1-3 5h-2v5l-2 1v-4h-10v2l-3-1v-4l11-4z" fill="#B5C2C5"/>
<path transform="translate(750,586)" d="m0 0 2 3 1 5 3-1-1 4-5 6h-2v-2h-5l-5 3-3-3 2-2h3l1-4 5-5z" fill="#C0D0D1"/>
<path transform="translate(690,307)" d="m0 0 2 3v8h3l1-11h1v23l-2 6-4-1-3-13z" fill="#35515F"/>
<path transform="translate(541,696)" d="m0 0h1v25l-8-4v-13l2-4h2l1-3z" fill="#B5C2C5"/>
<path transform="translate(459,117)" d="m0 0 4 1h-2v3h-2l-2 13-6-4-5-3-2-1v-3l-4-1 3-2 11-1 4-1z" fill="#354E5A"/>
<path transform="translate(644,638)" d="m0 0 6 1 2 7-3 5-1 1h-7l-3-4 1-7z" fill="#278BB3"/>
<path transform="translate(296,382)" d="m0 0h10l1 6 2 1v2h-19v-5l3-3z" fill="#374C57"/>
<path transform="translate(814,410)" d="m0 0 1 2-1 22-4 16-5 23-3 7-1-2 5-22 4-22 2-19z" fill="#DFE8E8"/>
<path transform="translate(279,243)" d="m0 0 5 1 3 3-1 7-3 2h-6l-4-5 1-4z" fill="#2A3948"/>
<path transform="translate(558,643)" d="m0 0h8l7 4 6 8 1 7-2 9-4 5-2-1 3-9-3-1-2 1v-7l2 1 4-1-3-9-6-4-12-1z" fill="#3AABCF"/>
<path transform="translate(379,617)" d="m0 0 4 2 12 12-2 4-3 1-10-9-2-5z" fill="#E0EAE9"/>
<path transform="translate(341,376)" d="m0 0 3 1 1 27h3l2-4v12l-2 6-6-2-2-4h2v-34z" fill="#B5C2C5"/>
<path transform="translate(695,599)" d="m0 0 2 1 2 4 1 3 3-1-1 8-3 2-6-1-2-3v-7z" fill="#BFCFD0"/>
<path transform="translate(662,656)" d="m0 0m-2 1 2 1-4 4-23 11-16 6-14 5-4-1 10-4 26-10 20-10z" fill="#E0E9E8"/>
<path transform="translate(728,439)" d="m0 0 4 1v3l3-3 9 11 1 4-9-2-9-9z" fill="#C3D2D3"/>
<path transform="translate(401,629)" d="m0 0 2 1-4 3h-2v19l4 6 6 4 11 1-3 2h-7l-8-5-6-8-2-12-2-4 5-4z" fill="#3DB0D3"/>
<path transform="translate(341,375)" d="m0 0h4l2 10 3 2v13l-1 6-1-2h-3l-1-6-1-21z" fill="#238AB3"/>
<path transform="translate(573,512)" d="m0 0 5 1 3 3v7l-3 2-7-1-1-1v-7z" fill="#3FC4E0"/>
<path transform="translate(465,248)" d="m0 0 6 1v2l-5 2 1 2-4 3-1 6 2 5-6-2-2-2 1-9 6-7z" fill="#364D59"/>
<path transform="translate(312,587)" d="m0 0h6l4 5v10h-1v-6l-7 1-7-2 1-5z" fill="#29C7E7"/>
<path transform="translate(584,186)" d="m0 0h7l1 3h-2l-1 4-6 5-3 5-4-3 1-6 5-5z" fill="#374C57"/>
<path transform="translate(348,366)" d="m0 0 2 2 1 4-1 15-4 1-1-13h-4v2h-3v-3l4-1 2-5z" fill="#354F5B"/>
<path transform="translate(701,586)" d="m0 0h1v13l2 4v9l-2 1v-6h-2l-4-5v-10l2-4h3z" fill="#B5C2C5"/>
<path transform="translate(476,485)" d="m0 0h1v5h2l2 5 1 15-5-3-2 1v-18l1-3-2-1z" fill="#238AB3"/>
<path transform="translate(567,532)" d="m0 0 7 1v20h-1l-1-5-2-2-2 1-2 3v-16z" fill="#325A6D"/>
<path transform="translate(369,637)" d="m0 0h7l2 3v6l-2 2h-8l-1-2v-6z" fill="#46DEF1"/>
<path transform="translate(728,244)" d="m0 0h1v95l-5-1 1-2h2z" fill="#BCCACC"/>
<path transform="translate(427,198)" d="m0 0 4 2 8 8-4 4-4-1-9-9v-1h5z" fill="#C2D1D2"/>
<path transform="translate(700,410)" d="m0 0 6 1 6 7h-2l-1 5 1 4-5-4-6-8z" fill="#BFCFD0"/>
<path transform="translate(337,291)" d="m0 0h7l6 4v1l-8 1-5 2h-6l-2-1v-3h2v-2z" fill="#23DEFA"/>
<path transform="translate(266,530)" d="m0 0 2 3 1 14 1 4 2 1-5-1-4-5-1-3v-8z" fill="#46DCF0"/>
<path transform="translate(688,695)" d="m0 0h16l14 3 12 6 9 7-3 1-6-5-8-4-5-3-7-2h-31l4-2z" fill="#38B4D4"/>
<path transform="translate(553,645)" d="m0 0h2v2l-5 5-2 6v9l4 6 7 5 9 1-3 2-8-1-7-4-4-7-1-10 3-9z" fill="#37A7CC"/>
<path transform="translate(454,640)" d="m0 0 9 1 2 2-8-1-10 3-5 10v11l4 6 3 4-4-2-5-6-1-3v-9l3-8 7-6z" fill="#37A8CC"/>
<path transform="translate(336,378)" d="m0 0 4 1 2 7-2 6-7-2v-9z" fill="#E6EEED"/>
<path transform="translate(256,282)" d="m0 0h7l3 3-1 5-2 2-7-1-2-2 1-6z" fill="#294152"/>
<path transform="translate(717,586)" d="m0 0 7 1-1 7-3 3-6-1-1-6z" fill="#374C57"/>
<path transform="translate(802,479)" d="m0 0 1 2-7 20-7 17-5 7-1-2 9-20 9-23z" fill="#E5EDEC"/>
<path transform="translate(635,617)" d="m0 0 3 1-2 4v5l-8 7-2-3 2-7z" fill="#BECECF"/>
<path transform="translate(560,256)" d="m0 0 3 3 1 2v6l-1 2-8 1-3-2 6-7h2z" fill="#238AB3"/>
<path transform="translate(784,524)" d="m0 0v3l-8 16-13 22-3 1 2-5 7-11 12-22z" fill="#E5EDEC"/>
<path transform="translate(507,629)" d="m0 0 1 2 3-1 7 1v10l-1-2-10-2h-1z" fill="#C1D0D1"/>
<path transform="translate(484,117)" d="m0 0 6 5 1 3v9h-1l-1-5-5 2-1 3h-1l-2-8 5-2z" fill="#47DFF2"/>
<path transform="translate(647,523)" d="m0 0h2l-1 6-4 8-12 19-4 2 2-4 10-15z" fill="#E2EBEB"/>
<path transform="translate(782,309)" d="m0 0h7l4 7v12h-1v-5l-5 2-7-3 4-1 5-1 1-3-2-3-4-1v-2z" fill="#3AACD0"/>
<path transform="translate(760,566)" d="m0 0v3l-12 16-7 9-4 2 2-4 10-12 8-12z" fill="#E3ECEB"/>
<path transform="translate(578,555)" d="m0 0 5 1v2h2l-2 4-9 5 1-11z" fill="#DEE8E7"/>
<path transform="translate(282,499)" d="m0 0 6 5 4 5-2 5-4-1-6-5 3-1v-5z" fill="#238AB3"/>
<path transform="translate(269,346)" d="m0 0 6 1v4l-5 5h-6l-2-2 4-5h2z" fill="#374C57"/>
<path transform="translate(793,352)" d="m0 0h5l1 1v7l-3 3h-2v2h-3l-1-3 2-5z" fill="#23DEFA"/>
<path transform="translate(744,451)" d="m0 0 5 2 5-2h4l-1 3h-5v11l-10-10h3z" fill="#297594"/>
<path transform="translate(773,275)" d="m0 0h1l1 10-3 7-6 7-3 2h-3l-1 2h-5v-2l-4-2 7 1 7-3 3-1 5-10z" fill="#37A6CB"/>
<path transform="translate(414,157)" d="m0 0 4 1 4 3 4 1h11l1 2h-25l-1-2h3l-2-1z" fill="#2B3745"/>
<path transform="translate(739,594)" d="m0 0v3l-22 22-5 4-2-1 16-16 8-7z" fill="#E6EEEE"/>
<path transform="translate(759,323)" d="m0 0h1v24l-3 3-2-3-1-8 5-1z" fill="#2D6881"/>
<path transform="translate(645,243)" d="m0 0 5 1 2 2v4l-3 2h-5l-2-2v-5z" fill="#2E3C49"/>
<path transform="translate(722,207)" d="m0 0h8l7 5 2 4v11l-4 4 1-5v-10l-5-6h-13l1-2z" fill="#3AACD0"/>
<path transform="translate(231,455)" d="m0 0h2l4 5v4l-6 2-3-1v-6z" fill="#BDD1D3"/>
<path transform="translate(814,410)" d="m0 0 1 2-1 22-3 7h-1l1-15 2-15z" fill="#E2EBEA"/>
<path transform="translate(210,381)" d="m0 0 2 2v7l-4 2-5-1 1-5 4-1-1-3z" fill="#238AB3"/>
<path transform="translate(691,310)" d="m0 0h1v8h3l1-2v12h-4l-1-1z" fill="#238AB3"/>
<path transform="translate(194,420)" d="m0 0h1v5h2l1 11-1 8-1-4h-2z" fill="#334855"/>
<path transform="translate(685,641)" d="m0 0m-1 1m-2 1 2 1-5 5-16 10-2-1 7-6z" fill="#E3ECEB"/>
<path transform="translate(573,512)" d="m0 0 5 1 2 1v6l-4 1-4-2v-6z" fill="#B7CED1"/>
<path transform="translate(727,564)" d="m0 0 5 1 2 4-2 3h-6l-1-1v-5z" fill="#2A4A5E"/>
<path transform="translate(548,490)" d="m0 0h1v10l-1 9h-1v-5l-4-1v-7l4-1z" fill="#335767"/>
<path transform="translate(691,173)" d="m0 0 8 1 3 3-4-1h-7l-6 6-2 11h-1v-12l5-6z" fill="#3ECFE8"/>
<path transform="translate(453,515)" d="m0 0 4 3 2-1-1 6-3 3h-7l3-2z" fill="#2BC6E6"/>
<path transform="translate(698,393)" d="m0 0h9l1 5-1 1h-7l-3-3z" fill="#B5C2C5"/>
<path transform="translate(418,186)" d="m0 0h6v2h2v2l2 1v3l-3 1-8-6-4-2z" fill="#335666"/>
<path transform="translate(361,622)" d="m0 0 9 1-2 5-4 1-1-3h-2l-1 2-3-4z" fill="#E4EDEC"/>
<path transform="translate(462,250)" d="m0 0 2 1-1 3h-2v6l-2 7-3-2 1-9z" fill="#2A4456"/>
<path transform="translate(464,657)" d="m0 0h1v10l-3 3-6 1-6-3-3-5 1-5h1l2 8 4 2 6-1 2-2z" fill="#39AACE"/>
<path transform="translate(739,446)" d="m0 0 5 5 1 4-9-2-1-5z" fill="#B5C2C5"/>
<path transform="translate(609,749)" d="m0 0h26v11l-1 1h-5l4-1-1-2v-8h-23z" fill="#BDCCCE"/>
<path transform="translate(388,627)" d="m0 0 4 1 3 3-2 4-3 1-6-5 4-2z" fill="#BECDCE"/>
<path transform="translate(696,302)" d="m0 0h1l-1 14-1 2h-3l-1-11 4-1z" fill="#B7C5C7"/>
<path transform="translate(209,298)" d="m0 0h1l-1 9-3 11-2 1v-11l1-4h3z" fill="#2A4254"/>
<path transform="translate(684,741)" d="m0 0 2 2-1 4-3 1-1 2-4-3-1-4z" fill="#248BB4"/>
<path transform="translate(319,532)" d="m0 0h1l1 13-8 1v-7l4 1z" fill="#BDCCCE"/>
<path transform="translate(624,674)" d="m0 0h2v2l-15 6-6 2-4-1 10-4z" fill="#DCE6E6"/>
<path transform="translate(419,638)" d="m0 0h2l2 3v9l-5 4h-9l-3-1v-2l10 1 4-3v-8z" fill="#35A5CA"/>
<path transform="translate(369,638)" d="m0 0h2l-1 9 5-2 1-6 2 1v6l-2 2h-8l-1-2v-6z" fill="#BFCECF"/>
<path transform="translate(665,703)" d="m0 0 2 1-10 9-7 7-1-3 4-5z" fill="#3BD4ED"/>
<path transform="translate(426,631)" d="m0 0 3 3 2 5v10l-3 8-2 1 1-6 1-1v-14z" fill="#35A4C9"/>
<path transform="translate(690,472)" d="m0 0 17 1-4 2v2h-7v-2l-6-2z" fill="#329FC5"/>
<path transform="translate(258,265)" d="m0 0h5l1 6 2 1h-8l-1-5z" fill="#374C57"/>
<path transform="translate(396,654)" d="m0 0 4 2 5 5 2 1 11 1-3 2h-7l-8-5-4-5z" fill="#37A7CC"/>
<path transform="translate(712,220)" d="m0 0 2 4 3 3 4 9-4-2-4-5z" fill="#43D4EA"/>
<path transform="translate(723,218)" d="m0 0h5l1 3-1 3-4 1-3-2 1-4z" fill="#2D3B48"/>
<path transform="translate(440,174)" d="m0 0 5 1 3 3 1 5h-3l-7-7z" fill="#B6C4C6"/>
<path transform="translate(478,482)" d="m0 0 2 3 2 8v12h-1l-2-15h-2z" fill="#B8C5C8"/>
<path transform="translate(791,475)" d="m0 0 1 2-3 11-3 3-7-1-1-2 9-1 2-10z" fill="#36A6CB"/>
<path transform="translate(235,430)" d="m0 0h6v5l-1 1h-5l-1-5z" fill="#2C4A5C"/>
<path transform="translate(745,342)" d="m0 0 2 1-8 8-2-4 1-4z" fill="#BECECF"/>
<path transform="translate(412,188)" d="m0 0 1 2h5l2 4-5 3-3-5z" fill="#3FB3D6"/>
<path transform="translate(426,123)" d="m0 0h6l4 3-1 2-9-1-2-2z" fill="#94C9D4"/>
<path transform="translate(712,720)" d="m0 0 1 4-3 3-2 3h-3l1-5 4-4 2 1z" fill="#248CB5"/>
<path transform="translate(341,571)" d="m0 0v3l-5 6-7 2-5-1 14-7z" fill="#34A3C9"/>
<path transform="translate(312,1)" d="m0 0h10l3 2-5 2h-6z" fill="#2A3543"/>
<path transform="translate(790,508)" d="m0 0h2l-1 5-5 10-3 2 2-6z" fill="#E0E9E9"/>
<path transform="translate(746,585)" d="m0 0v3l-5 6-4 2 2-4 5-6z" fill="#E2EBEA"/>
<path transform="translate(479,260)" d="m0 0h1v7l-1 3h-14v-1l9-1 2-3 2 1z" fill="#374C57"/>
<path transform="translate(476,446)" d="m0 0 2 3-4 4-5-1v-3z" fill="#364D59"/>
<path transform="translate(52,273)" d="m0 0 2 1-1 4-6 2-5-3v-2h10z" fill="#374C57"/>
<path transform="translate(376,614)" d="m0 0 4 2-2 7-5-5z" fill="#C2D1D2"/>
<path transform="translate(764,447)" d="m0 0 4 2 1 7-7-6v-2z" fill="#BFCECF"/>
<path transform="translate(788,469)" d="m0 0 5 1-1 5-3 3-2-1v-7z" fill="#B5C2C5"/>
<path transform="translate(334,412)" d="m0 0 11 7 4 3-9-2-5-4z" fill="#2F647B"/>
<path transform="translate(647,523)" d="m0 0h2l-1 6-3 6-3 1 2-6z" fill="#E0E9E8"/>
<path transform="translate(269,485)" d="m0 0 7 1-6 2-2 7-2-2-1-4z" fill="#238AB3"/>
<path transform="translate(789,323)" d="m0 0h3v6l-2 2-2-1v-3l-3-1z" fill="#BBCACC"/>
<path transform="translate(791,318)" d="m0 0h1v5l-5 2-7-3 4-1 5-1z" fill="#3DAFD3"/>
<path transform="translate(728,322)" d="m0 0h1v17l-5-1 1-2h2z" fill="#B9C7C9"/>
<path transform="translate(221,268)" d="m0 0 1 4-5 11-2-1 3-9z" fill="#2B4759"/>
<path transform="translate(708,696)" d="m0 0 10 2 7 3-1 2-5-2-11-4z" fill="#38A9CE"/>
<path transform="translate(673,649)" d="m0 0m-2 1 2 1-5 5-5 3-2-1 7-6z" fill="#E7EFEE"/>
<path transform="translate(768,553)" d="m0 0v3l-6 10h-2l2-5z" fill="#E7EFEE"/>
<path transform="translate(349,412)" d="m0 0h1l-1 9-5-2-4-3 8 1z" fill="#BECDCE"/>
<path transform="translate(463,85)" d="m0 0h9v3l-10 1z" fill="#304E5E"/>
<path transform="translate(700,393)" d="m0 0h7l1 5-2 1-2-1v-2l-4-2z" fill="#C1D1D2"/>
<path transform="translate(467,260)" d="m0 0 3 1 3 3 2 1-1 4h-2l-4-5z" fill="#238AB3"/>
<path transform="translate(674,913)" d="m0 0 2 1v2l-10 1 1-3z" fill="#3AABD0"/>
<path transform="translate(360,344)" d="m0 0h5l1 4-7 1v-4z" fill="#374C57"/>
</svg>
